<svg xmlns="http://www.w3.org/2000/svg" viewBox="0 0 1080 1080" width="1080" height="1080"><rect width="1080" height="1080" fill="#0a0a0a"/><rect x="200" y="100" width="680" height="800" rx="24" fill="#111111" stroke="#c9a22733" stroke-width="1"/><rect x="220" y="120" width="640" height="380" rx="16" fill="#1a1a00" stroke="#c9a22733" stroke-width="1"/><text x="540" y="280" text-anchor="middle" font-family="system-ui,sans-serif" font-size="80" fill="#c9a22730">PRODUCT</text><rect x="430" y="220" width="220" height="220" rx="12" fill="#111111" stroke="#c9a227" stroke-width="2"/><circle cx="540" cy="330" r="70" fill="none" stroke="#c9a22760" stroke-width="25"/><rect x="510" y="300" width="60" height="60" rx="4" fill="none" stroke="#c9a227" stroke-width="3"/><rect x="522" y="312" width="16" height="16" fill="#c9a227"/><rect x="544" y="312" width="16" height="16" fill="#c9a227"/><rect x="522" y="334" width="16" height="16" fill="#c9a227"/><rect x="544" y="334" width="16" height="16" fill="#c9a227" opacity="0.4"/><text x="540" y="545" text-anchor="middle" font-family="system-ui,sans-serif" font-size="26" font-weight="700" fill="white">Premium Widget Pro</text><text x="540" y="580" text-anchor="middle" font-family="system-ui,sans-serif" font-size="16" fill="#6b6b6b">AuthiChain Verified · Genuine Product</text><text x="540" y="630" text-anchor="middle" font-family="system-ui,sans-serif" font-size="40" font-weight="900" fill="#c9a227">$299.00</text><rect x="280" y="670" width="520" height="50" rx="10" fill="#c9a227"/><text x="540" y="702" text-anchor="middle" font-family="system-ui,sans-serif" font-size="18" font-weight="700" fill="#0a0a0a">Buy Now · Verified Authentic</text><rect x="280" y="740" width="520" height="40" rx="10" fill="none" stroke="#c9a227" stroke-width="1.5"/><text x="540" y="766" text-anchor="middle" font-family="system-ui,sans-serif" font-size="14" fill="#c9a227">Scan QR to Verify Authenticity</text><text x="540" y="830" text-anchor="middle" font-family="system-ui,sans-serif" font-size="13" fill="#3a3a3a">QRON · E-commerce · Blockchain Verified · qron.space</text></svg>