<svg xmlns="http://www.w3.org/2000/svg" viewBox="0 0 1080 1080" width="1080" height="1080"><rect width="1080" height="1080" fill="#0a0a0a"/><rect x="240" y="150" width="600" height="420" rx="16" fill="#1a1a1a" stroke="#333" stroke-width="1"/><rect x="270" y="180" width="540" height="30" rx="6" fill="#222"/><rect x="290" y="225" width="180" height="20" rx="4" fill="#333"/><rect x="290" y="255" width="120" height="15" rx="4" fill="#2a2a2a"/><rect x="290" y="290" width="420" height="240" rx="8" fill="#111"/><text x="500" y="420" text-anchor="middle" font-family="system-ui,sans-serif" font-size="60" fill="#1a1a1a">TECH</text><rect x="630" y="310" width="60" height="60" rx="4" fill="none" stroke="#c9a227" stroke-width="2"/><rect x="640" y="320" width="16" height="16" fill="#c9a227"/><rect x="664" y="320" width="16" height="16" fill="#c9a227"/><rect x="640" y="344" width="16" height="16" fill="#c9a227"/><rect x="664" y="344" width="16" height="16" fill="#c9a227" opacity="0.4"/><text x="540" y="650" text-anchor="middle" font-family="system-ui,sans-serif" font-size="32" font-weight="900" fill="white">Creator Merch</text><text x="540" y="692" text-anchor="middle" font-family="system-ui,sans-serif" font-size="18" fill="#c9a227">Tech Gadget · Living QR Corner</text><text x="540" y="730" text-anchor="middle" font-family="system-ui,sans-serif" font-size="14" fill="#6b6b6b">Scan corner QR to verify &amp; unlock creator content</text><rect x="60" y="800" width="960" height="220" rx="16" fill="#111100" stroke="#c9a22733" stroke-width="1"/><text x="540" y="860" text-anchor="middle" font-family="system-ui,sans-serif" font-size="20" font-weight="700" fill="white">Creator &amp; Merchandise QR Integration</text><text x="540" y="900" text-anchor="middle" font-family="system-ui,sans-serif" font-size="16" fill="#9e9e9e">Embed QRON in tech products, merch &amp; packaging.</text><text x="540" y="930" text-anchor="middle" font-family="system-ui,sans-serif" font-size="16" fill="#9e9e9e">Each scan verifies authenticity via AuthiChain Protocol.</text><text x="540" y="985" text-anchor="middle" font-family="system-ui,sans-serif" font-size="14" fill="#c9a227">QRON · AI Living QR Art · qron.space</text></svg>