<svg xmlns="http://www.w3.org/2000/svg" viewBox="0 0 1080 1080" width="1080" height="1080"><defs><radialGradient id="bg" cx="50%" cy="50%" r="70%"><stop offset="0%" stop-color="#0d0d1a"/><stop offset="100%" stop-color="#0a0a0a"/></radialGradient><radialGradient id="glow" cx="50%" cy="50%" r="50%"><stop offset="0%" stop-color="#00bfff" stop-opacity="0.3"/><stop offset="100%" stop-color="#00bfff" stop-opacity="0"/></radialGradient></defs><rect width="1080" height="1080" fill="url(#bg)"/><circle cx="540" cy="480" r="320" fill="url(#glow)"/><circle cx="540" cy="480" r="300" fill="none" stroke="#00bfff" stroke-width="2" opacity="0.4"/><circle cx="540" cy="480" r="260" fill="none" stroke="#00bfff" stroke-width="1" opacity="0.25"/><circle cx="540" cy="480" r="220" fill="none" stroke="#c9a227" stroke-width="1.5" opacity="0.5"/><circle cx="540" cy="480" r="180" fill="none" stroke="#c9a227" stroke-width="3" opacity="0.7"/><circle cx="540" cy="480" r="140" fill="none" stroke="#00bfff" stroke-width="2" opacity="0.5"/><rect x="480" y="420" width="120" height="120" rx="8" fill="none" stroke="#c9a227" stroke-width="4"/><rect x="500" y="440" width="32" height="32" fill="#c9a227"/><rect x="548" y="440" width="32" height="32" fill="#c9a227"/><rect x="500" y="488" width="32" height="32" fill="#c9a227"/><rect x="548" y="488" width="32" height="32" fill="#c9a227" opacity="0.4"/><circle cx="540" cy="480" r="12" fill="#c9a227"/><circle cx="540" cy="480" r="6" fill="white"/><text x="540" y="860" text-anchor="middle" font-family="system-ui,sans-serif" font-size="36" font-weight="900" fill="white">Static Portal</text><text x="540" y="900" text-anchor="middle" font-family="system-ui,sans-serif" font-size="18" fill="#00bfff">Cyan Glowing Ring QR Art</text><text x="540" y="935" text-anchor="middle" font-family="system-ui,sans-serif" font-size="15" fill="#6b6b6b">AuthiChain Protocol · Ed25519 Signed · 100% Scannable</text><rect x="60" y="960" width="960" height="60" rx="12" fill="#111111" stroke="#c9a22733" stroke-width="1"/><text x="540" y="998" text-anchor="middle" font-family="system-ui,sans-serif" font-size="14" fill="#c9a227">QRON · AI Living QR Art · qron.space</text></svg>