<svg xmlns="http://www.w3.org/2000/svg" viewBox="0 0 1350 1080" width="1350" height="1080"><defs><linearGradient id="bg" x1="0" y1="0" x2="1" y2="1"><stop offset="0%" stop-color="#0a0a12"/><stop offset="100%" stop-color="#0a0a0a"/></linearGradient></defs><rect width="1350" height="1080" fill="url(#bg)"/><rect x="0" y="0" width="1350" height="1080" fill="none" stroke="#c9a227" stroke-width="3" opacity="0.15"/><text x="675" y="100" text-anchor="middle" font-family="system-ui,sans-serif" font-size="24" font-weight="700" fill="#c9a227" opacity="0.7" letter-spacing="6">AUTHICHAIN VERIFIED EVENT</text><text x="675" y="200" text-anchor="middle" font-family="system-ui,sans-serif" font-size="80" font-weight="900" fill="white">QRON</text><text x="675" y="260" text-anchor="middle" font-family="system-ui,sans-serif" font-size="30" fill="#c9a227">SUMMIT 2026</text><text x="675" y="330" text-anchor="middle" font-family="system-ui,sans-serif" font-size="22" fill="#6b6b6b">The Future of Cryptographic QR Art</text><rect x="525" y="380" width="300" height="300" rx="16" fill="#111111" stroke="#c9a227" stroke-width="2"/><circle cx="675" cy="530" r="100" fill="none" stroke="#c9a227" stroke-width="3" opacity="0.6"/><circle cx="675" cy="530" r="70" fill="none" stroke="#00bfff" stroke-width="2" opacity="0.4"/><rect x="645" y="500" width="60" height="60" rx="4" fill="none" stroke="#c9a227" stroke-width="3"/><rect x="657" y="512" width="16" height="16" fill="#c9a227"/><rect x="679" y="512" width="16" height="16" fill="#c9a227"/><rect x="657" y="534" width="16" height="16" fill="#c9a227"/><rect x="679" y="534" width="16" height="16" fill="#c9a227" opacity="0.4"/><text x="675" y="730" text-anchor="middle" font-family="system-ui,sans-serif" font-size="18" fill="#9e9e9e">Scan to Verify Entry</text><text x="675" y="760" text-anchor="middle" font-family="system-ui,sans-serif" font-size="14" fill="#c9a22790">AuthiChain Ed25519 · Blockchain Anchored</text><rect x="100" y="820" width="1150" height="180" rx="16" fill="#111100" stroke="#c9a22733" stroke-width="1"/><text x="675" y="870" text-anchor="middle" font-family="system-ui,sans-serif" font-size="20" font-weight="700" fill="white">Event Poster with AuthiChain-Verified QRON</text><text x="675" y="910" text-anchor="middle" font-family="system-ui,sans-serif" font-size="16" fill="#9e9e9e">Cryptographically signed QR codes for events, conferences, and tickets.</text><text x="675" y="970" text-anchor="middle" font-family="system-ui,sans-serif" font-size="14" fill="#c9a227">QRON · AI Living QR Art · qron.space</text></svg>